Coordinates
version=1
nRows=38
nColumns=38
inDegrees=no

Units are S.I. units (second, meters, Newtons, ...)
If the header above contains a line with 'inDegrees', this indicates whether rotational values are in degrees (yes) or radians (no).

endheader
time	pelvis_tilt	pelvis_list	pelvis_rotation	pelvis_tx	pelvis_ty	pelvis_tz	hip_flexion_r	hip_adduction_r	hip_rotation_r	knee_angle_r	ankle_angle_r	subtalar_angle_r	mtp_angle_r	hip_flexion_l	hip_adduction_l	hip_rotation_l	knee_angle_l	ankle_angle_l	subtalar_angle_l	mtp_angle_l	lumbar_extension	lumbar_bending	lumbar_rotation	arm_flex_r	arm_add_r	arm_rot_r	elbow_flex_r	pro_sup_r	wrist_flex_r	wrist_dev_r	arm_flex_l	arm_add_l	arm_rot_l	elbow_flex_l	pro_sup_l	wrist_flex_l	wrist_dev_l
0	0.635632	1.38298	1.13849	0.662713	-0.427262	1.02791	0.408737	0.0826521	-0.292279	0.31639	-0.108528	0	0	0.21602	-0.161136	0.105956	1.14902	-0.290847	0	0	0.0205135	0.124416	-0.144029	0.0858024	-0.221879	0.383225	0.224303	1.5708	0	0	-0.00360681	-0.309415	0.393058	0.678895	1.15993	0	0
0.01	0.599615	1.38317	1.17304	0.663631	-0.415645	1.03019	0.398189	0.0813588	-0.281098	0.312293	-0.107142	0	0	0.249513	-0.151365	0.111046	1.18661	-0.252706	0	0	0.0243673	0.113176	-0.144983	0.096082	-0.222335	0.376073	0.237551	1.56864	0	0	-0.0120679	-0.309723	0.390705	0.666571	1.15209	0	0
0.02	0.567779	1.38517	1.20137	0.664508	-0.403102	1.033	0.382677	0.0799454	-0.2763	0.30508	-0.107933	0	0	0.276048	-0.142255	0.110974	1.21264	-0.213526	0	0	0.02528	0.102023	-0.138613	0.100508	-0.224013	0.357639	0.256412	1.56222	0	0	-0.0177562	-0.309408	0.393399	0.652699	1.14806	0	0
0.03	0.539627	1.389	1.22455	0.665334	-0.390311	1.03613	0.363793	0.078825	-0.272707	0.296435	-0.110406	0	0	0.298263	-0.13419	0.107032	1.2306	-0.179354	0	0	0.024208	0.0910055	-0.129464	0.101944	-0.226228	0.334316	0.279084	1.55769	0	0	-0.0223126	-0.309231	0.398995	0.638393	1.1454	0	0
0.04	0.511028	1.39378	1.24784	0.666053	-0.377591	1.03938	0.343618	0.0774572	-0.268878	0.287623	-0.113299	0	0	0.31856	-0.12669	0.100484	1.24223	-0.151888	0	0	0.0222369	0.079918	-0.120584	0.102504	-0.228536	0.311948	0.303729	1.55565	0	0	-0.0275152	-0.30958	0.404404	0.625479	1.14391	0	0
0.05	0.482649	1.39922	1.27087	0.666697	-0.365027	1.04267	0.322808	0.0758556	-0.266707	0.279286	-0.117533	0	0	0.337319	-0.119908	0.0926026	1.24768	-0.123134	0	0	0.0200681	0.069077	-0.110732	0.0994912	-0.230948	0.282448	0.333519	1.55715	0	0	-0.0317988	-0.310291	0.412319	0.612715	1.14243	0	0
0.06	0.450482	1.40435	1.29694	0.667341	-0.352547	1.04584	0.303076	0.07364	-0.264774	0.271684	-0.122926	0	0	0.355487	-0.113607	0.0834285	1.24711	-0.0995266	0	0	0.0185093	0.0582213	-0.100722	0.0954348	-0.232579	0.252024	0.364659	1.56128	0	0	-0.0369721	-0.311192	0.419473	0.601231	1.14067	0	0
0.07	0.412389	1.40783	1.32595	0.668164	-0.340068	1.04882	0.285711	0.071598	-0.261403	0.264656	-0.128988	0	0	0.373826	-0.10901	0.0699576	1.24064	-0.0786507	0	0	0.0191053	0.0476763	-0.0878924	0.089325	-0.233833	0.221326	0.3977	1.56716	0	0	-0.0428698	-0.311596	0.426049	0.589806	1.1389	0	0
0.08	0.37155	1.41015	1.35887	0.668835	-0.327741	1.05161	0.269855	0.0684618	-0.260454	0.25781	-0.135605	0	0	0.392841	-0.104943	0.0558697	1.22889	-0.0602204	0	0	0.0210014	0.0376103	-0.0759416	0.0822251	-0.234531	0.190801	0.431366	1.5708	0	0	-0.0486436	-0.311503	0.432159	0.578234	1.1367	0	0
0.09	0.332555	1.41131	1.39132	0.669304	-0.315517	1.05425	0.254522	0.0650579	-0.26152	0.250534	-0.142863	0	0	0.412088	-0.101843	0.0414797	1.21208	-0.0434763	0	0	0.0238413	0.0287238	-0.064833	0.0745957	-0.235331	0.163382	0.465056	1.5708	0	0	-0.0537833	-0.310575	0.43848	0.565883	1.13374	0	0
0.1	0.29556	1.41217	1.42109	0.66978	-0.303347	1.05678	0.239183	0.061983	-0.261799	0.243373	-0.149873	0	0	0.429801	-0.0997256	0.025855	1.18955	-0.029251	0	0	0.0261151	0.0207783	-0.0536512	0.0682049	-0.236526	0.143144	0.497232	1.5708	0	0	-0.0591611	-0.309071	0.443101	0.553774	1.13008	0	0
0.11	0.260608	1.41484	1.44946	0.670183	-0.291404	1.05923	0.221669	0.0585623	-0.263406	0.235691	-0.158436	0	0	0.444161	-0.0976792	0.0101958	1.16168	-0.0157878	0	0	0.0100417	0.0122557	-0.0693706	0.0830376	-0.232417	0.142854	0.529962	1.5708	0	0	-0.0843737	-0.315723	0.416328	0.570093	1.12533	0	0
0.12	0.224227	1.4167	1.47987	0.670423	-0.279515	1.06163	0.204644	0.0547287	-0.266715	0.227288	-0.164932	0	0	0.457459	-0.0951488	-0.00544509	1.12723	-0.00733149	0	0	0.0066524	0.00440768	-0.0658977	0.0840206	-0.23304	0.137451	0.558594	1.5708	0	0	-0.0944898	-0.313088	0.404263	0.563973	1.12634	0	0
0.13	0.190836	1.4174	1.50585	0.670634	-0.26756	1.06394	0.188581	0.0517486	-0.267881	0.218466	-0.175943	0	0	0.469279	-0.0935253	-0.0224409	1.08625	-3.65006e-05	0	0	0.0260872	-0.000324375	-0.0206297	0.0500088	-0.24021	0.093041	0.59329	1.56948	0	0	-0.0719283	-0.298656	0.441755	0.515581	1.12679	0	0
0.14	0.159317	1.4176	1.52888	0.670886	-0.255646	1.06589	0.173083	0.0491122	-0.26672	0.209267	-0.184327	0	0	0.479501	-0.0921239	-0.0392151	1.0404	0.00369075	0	0	0.028256	-0.00595738	-0.00659797	0.0430616	-0.240441	0.0746431	0.622606	1.5708	0	0	-0.0728823	-0.296752	0.457842	0.501071	1.11181	0	0
0.15	0.130986	1.41747	1.54926	0.671111	-0.243819	1.06757	0.158166	0.0468307	-0.265936	0.201483	-0.190741	0	0	0.488173	-0.0908217	-0.0560254	0.988903	0.00476001	0	0	0.0298868	-0.0111958	0.00478169	0.0391256	-0.241527	0.0646882	0.649339	1.5708	0	0	-0.0756715	-0.294525	0.468526	0.488706	1.09809	0	0
0.16	0.10617	1.41792	1.566	0.671334	-0.232011	1.06896	0.142581	0.0450689	-0.264816	0.194463	-0.196645	0	0	0.493833	-0.0895089	-0.0726801	0.931206	0.00191217	0	0	0.0187723	-0.0174695	-0.00583864	0.0535596	-0.239342	0.0747757	0.673561	1.5708	0	0	-0.0939609	-0.299103	0.457451	0.498181	1.08194	0	0
0.17	0.0819037	1.41744	1.58314	0.671406	-0.220244	1.07006	0.128107	0.0427096	-0.264531	0.18751	-0.200579	0	0	0.49746	-0.0858864	-0.085026	0.865535	-0.00383978	0	0	0.0168359	-0.0226605	-0.00364088	0.0577701	-0.240899	0.0799069	0.696064	1.5708	0	0	-0.103767	-0.297469	0.450954	0.494867	1.07412	0	0
0.18	0.0595818	1.41644	1.59883	0.671387	-0.208548	1.07086	0.114312	0.0403071	-0.26402	0.180774	-0.204581	0	0	0.497037	-0.0789034	-0.0886812	0.789259	-0.0137328	0	0	0.0157383	-0.0273543	-0.00120377	0.0615381	-0.242613	0.0843674	0.717856	1.5708	0	0	-0.112248	-0.29533	0.445773	0.490542	1.06753	0	0
0.19	0.0405737	1.41459	1.61116	0.671362	-0.196813	1.07127	0.101666	0.0381096	-0.262227	0.174961	-0.20815	0	0	0.49299	-0.0710527	-0.0886792	0.7023	-0.0291325	0	0	0.0157848	-0.0314234	0.00124969	0.0654752	-0.244584	0.0900357	0.738212	1.5708	0	0	-0.120304	-0.293187	0.442089	0.485861	1.06192	0	0
0.2	0.0282676	1.41416	1.61664	0.671215	-0.184968	1.0714	0.0877338	0.0367248	-0.260915	0.170233	-0.211337	0	0	0.485553	-0.0661777	-0.0948565	0.610632	-0.0546192	0	0	0.0143687	-0.0339033	0.00407398	0.0691914	-0.247632	0.0963688	0.7588	1.5708	0	0	-0.127711	-0.290599	0.439403	0.481572	1.05624	0	0
0.21	0.02353	1.41403	1.6146	0.670905	-0.172879	1.07104	0.0737309	0.0361419	-0.261821	0.166787	-0.212874	0	0	0.47837	-0.0646427	-0.11	0.521029	-0.0855642	0	0	0.0133264	-0.0347209	0.00707149	0.0716233	-0.25172	0.102961	0.779904	1.5708	0	0	-0.135357	-0.287639	0.437483	0.477998	1.0508	0	0
0.22	0.0276324	1.4139	1.60356	0.670549	-0.160619	1.07014	0.0598065	0.0367764	-0.263024	0.164006	-0.21252	0	0	0.473084	-0.0656148	-0.131734	0.43779	-0.120259	0	0	0.0126288	-0.0337402	0.0103443	0.0732445	-0.256554	0.109681	0.801333	1.5708	0	0	-0.143179	-0.28472	0.436716	0.475599	1.04544	0	0
0.23	0.0386846	1.41342	1.58532	0.67022	-0.148318	1.0687	0.0464428	0.0382141	-0.26317	0.161585	-0.209986	0	0	0.470345	-0.0678858	-0.156897	0.362333	-0.154688	0	0	0.0122978	-0.0313866	0.0139862	0.0745612	-0.261689	0.116192	0.822592	1.5708	0	0	-0.150945	-0.282262	0.437491	0.474694	1.04032	0	0
0.24	0.0573553	1.41166	1.55934	0.669846	-0.136005	1.06669	0.0348781	0.0405077	-0.262717	0.16018	-0.206055	0	0	0.470928	-0.0711321	-0.182327	0.294993	-0.184887	0	0	0.0134037	-0.0273639	0.0175713	0.0760868	-0.267275	0.123558	0.842572	1.5708	0	0	-0.158739	-0.279664	0.438791	0.474469	1.03484	0	0
0.25	0.0836268	1.40803	1.52569	0.669402	-0.123693	1.06408	0.025838	0.0440142	-0.262692	0.160295	-0.20132	0	0	0.475146	-0.0753321	-0.204441	0.235826	-0.206316	0	0	0.0166221	-0.0215478	0.0210283	0.0778586	-0.273099	0.131538	0.860833	1.5708	0	0	-0.166423	-0.276458	0.439694	0.474071	1.03016	0	0
0.26	0.113536	1.40324	1.48845	0.668907	-0.111404	1.06099	0.0180999	0.0483754	-0.261062	0.161223	-0.195007	0	0	0.481744	-0.080139	-0.222884	0.183738	-0.224589	0	0	0.0208224	-0.0145468	0.0243278	0.0799136	-0.279328	0.14034	0.877716	1.5708	0	0	-0.173562	-0.273057	0.440853	0.47367	1.02532	0	0
0.27	0.143713	1.39833	1.45204	0.668264	-0.0991842	1.05758	0.0102973	0.0530892	-0.258397	0.162612	-0.186879	0	0	0.489128	-0.0841799	-0.235166	0.137232	-0.239126	0	0	0.0244502	-0.00703493	0.0264855	0.0827419	-0.28567	0.14967	0.893039	1.5708	0	0	-0.179777	-0.269793	0.442396	0.473627	1.02027	0	0
0.28	0.173767	1.39335	1.41601	0.667585	-0.0869079	1.05386	0.0021777	0.0581404	-0.254441	0.164224	-0.177608	0	0	0.496164	-0.0876301	-0.241444	0.0942059	-0.250691	0	0	0.0275297	0.000956515	0.0284294	0.0860491	-0.291963	0.159225	0.906915	1.5708	0	0	-0.185319	-0.266636	0.443896	0.473906	1.01542	0	0
0.29	0.201582	1.38841	1.38222	0.666903	-0.0745641	1.04992	-0.00617894	0.0629957	-0.249837	0.166465	-0.167257	0	0	0.502746	-0.0904857	-0.244042	0.0546494	-0.259314	0	0	0.0302045	0.00885913	0.0305856	0.0894489	-0.297928	0.1683	0.919228	1.5708	0	0	-0.190138	-0.263904	0.44568	0.474449	1.01134	0	0
0.3	0.228304	1.38374	1.34964	0.666201	-0.0621041	1.04584	-0.0151229	0.0674846	-0.244701	0.168997	-0.156464	0	0	0.508472	-0.0931344	-0.244203	0.0189824	-0.265161	0	0	0.0322585	0.0168361	0.0324137	0.0933458	-0.303336	0.177197	0.929443	1.5708	0	0	-0.193984	-0.261141	0.448002	0.474111	1.00773	0	0
0.31	0.253126	1.38007	1.31948	0.665485	-0.0494362	1.04175	-0.025251	0.0712592	-0.241722	0.171703	-0.150453	0	0	0.513702	-0.0957326	-0.246002	0	-0.265643	0	0	0.0330759	0.0240772	0.033634	0.0972274	-0.306473	0.183339	0.936857	1.5708	0	0	-0.197149	-0.258559	0.449538	0.473474	1.00607	0	0
0.32	0.276003	1.37716	1.29082	0.664788	-0.0366256	1.03771	-0.0355488	0.0742534	-0.237494	0.176922	-0.135382	0	0	0.519047	-0.0987839	-0.251632	0	-0.261094	0	0	0.0325625	0.0308202	0.035408	0.101642	-0.3124	0.195572	0.943598	1.5708	0	0	-0.198996	-0.256526	0.453702	0.472347	1.00148	0	0
0.33	0.290247	1.37528	1.2709	0.664102	-0.0235716	1.03382	-0.0459477	0.0753486	-0.234973	0.183222	-0.123282	0	0	0.523008	-0.0999126	-0.25846	0	-0.252592	0	0	0.031533	0.0349762	0.0375135	0.105274	-0.315346	0.203605	0.946924	1.5708	0	0	-0.200689	-0.255683	0.457222	0.472007	0.995842	0	0
0.34	0.29715	1.37527	1.25888	0.663362	-0.0102755	1.03026	-0.0572901	0.0743383	-0.233593	0.19045	-0.114414	0	0	0.524794	-0.0986649	-0.265741	0	-0.245972	0	0	0.029113	0.036551	0.0395446	0.108498	-0.316585	0.210018	0.947052	1.5708	0	0	-0.20169	-0.25539	0.459179	0.471366	0.989753	0	0
0.35	0.298828	1.37697	1.25297	0.662587	0.00327024	1.02707	-0.069524	0.0713483	-0.233425	0.198479	-0.10863	0	0	0.524658	-0.0954986	-0.272275	0	-0.242772	0	0	0.0254325	0.0358765	0.0411809	0.111031	-0.315965	0.214327	0.944157	1.5708	0	0	-0.202095	-0.255284	0.458499	0.470023	0.982569	0	0
0.36	0.296055	1.37945	1.2521	0.661847	0.0170949	1.02421	-0.0819933	0.0669983	-0.232968	0.206888	-0.105898	0	0	0.523345	-0.0913403	-0.27682	0	-0.242291	0	0	0.0218177	0.0334232	0.0429764	0.112212	-0.313874	0.216943	0.938312	1.5708	0	0	-0.202262	-0.255303	0.454836	0.467967	0.974096	0	0
0.37	0.290521	1.38291	1.25458	0.66114	0.0312421	1.0217	-0.0949118	0.061702	-0.232648	0.216209	-0.103996	0	0	0.520448	-0.086754	-0.279646	0	-0.242729	0	0	0.0176546	0.029434	0.0440485	0.1132	-0.311032	0.220981	0.929193	1.5708	0	0	-0.203094	-0.25591	0.44887	0.466904	0.959769	0	0
